<?xml version="1.0" encoding="UTF-8"?>
<!DOCTYPE svg PUBLIC "-//W3C//DTD SVG 1.1//EN" "http://www.w3.org/Graphics/SVG/1.1/DTD/svg11.dtd">
<!-- Creator: CorelDRAW X8 -->
<svg xmlns="http://www.w3.org/2000/svg" xml:space="preserve" width="170.053mm" height="184.012mm" version="1.1" style="shape-rendering:geometricPrecision; text-rendering:geometricPrecision; image-rendering:optimizeQuality; fill-rule:evenodd; clip-rule:evenodd"
viewBox="0 0 17005 18401"
 xmlns:xlink="http://www.w3.org/1999/xlink">
 <defs>
  <style type="text/css">
   <![CDATA[
    .fil0 {fill:#FDFDFE}
    .fil1 {fill:url(#id0)}
   ]]>
  </style>
  <linearGradient id="id0" gradientUnits="userSpaceOnUse" x1="882.931" y1="9488.29" x2="16105.5" y2="9488.29">
   <stop offset="0" style="stop-opacity:1; stop-color:#282D73"/>
   <stop offset="1" style="stop-opacity:1; stop-color:#005587"/>
  </linearGradient>
 </defs>
 <g id="Layer_x0020_1">
  <metadata id="CorelCorpID_0Corel-Layer"/>
  <path class="fil0" d="M8946 11812l810 705c158,146 246,215 405,370l2209 1953c90,77 112,87 207,182l391 349c145,121 276,238 419,359l392 349c381,385 1136,976 1584,1420l-6427 -7 10 -5680zm-7292 5687c38,-61 233,-230 323,-308 66,-56 111,-79 177,-141 87,-82 83,-86 167,-150 243,-187 416,-396 679,-573l1266 1172 -2612 0zm4197 -3667c294,-228 2039,-1809 2197,-1893l-6 5560c-516,0 -1033,0 -1549,0 -747,0 -828,114 -1221,-288 -165,-168 -256,-229 -404,-372l-1190 -1101 2173 -1906zm6940 -6040c91,-82 225,-203 323,-278l964 -836c110,-108 229,-156 304,-287 255,112 1445,1332 1723,1478l0 9057c-186,-107 -1075,-927 -1321,-1146l-439 -375c-90,-71 -131,-130 -219,-203l-861 -762c-77,-74 -133,-103 -211,-178l-2769 -2452c-254,-252 -833,-703 -1035,-940l3541 -3078zm-11898 650c0,-279 -57,-457 105,-591 133,-111 237,-226 371,-335l4260 -3855c380,-341 2064,-1944 2424,-2182l0 8515c0,968 64,654 -363,1057l-3774 3282c-147,138 -224,201 -371,332 -123,109 -255,220 -384,324l-1319 1150c-81,63 -105,102 -183,168l-766 639 0 -8504zm8045 -6979l1825 1616c563,519 1878,1740 2410,2175l572 529 -1801 1583c-723,648 -1723,1451 -2417,2099l-591 491 2 -8493zm-1028 -1087l-2473 2248c-107,87 -165,169 -271,257 -120,101 -161,125 -279,250l-1395 1253c-355,306 -1024,976 -1380,1265 -124,101 -149,123 -276,252l-1670 1506c-225,207 -156,524 -156,894l0 5291c0,1402 30,2837 -5,4235 -18,735 575,554 1549,555l6349 0 8044 0c1277,-1 1041,118 1041,-2391l0 -8079c3,-577 -210,-579 -690,-1022l-1215 -1112c-147,-129 -157,-119 -286,-279l-4281 -3832c-105,-106 -200,-157 -302,-263 -125,-132 -183,-159 -299,-266 -126,-114 -171,-167 -295,-269 -119,-96 -190,-188 -314,-286 -310,-246 -657,-799 -1076,-493 -120,88 -185,199 -320,286z"/>
  <path class="fil1" d="M8936 9956l591 -491c694,-648 1694,-1451 2417,-2099l1801 -1583 -572 -529c-532,-435 -1847,-1656 -2410,-2175l-1825 -1616 -2 8493zm314 914c202,237 781,688 1035,940l2769 2452c78,75 134,104 211,178l861 762c88,73 129,132 219,203l439 375c246,219 1135,1039 1321,1146l0 -9057c-278,-146 -1468,-1366 -1723,-1478 -75,131 -194,179 -304,287l-964 836c-98,75 -232,196 -323,278l-3541 3078zm-314 6622l6427 7c-448,-444 -1203,-1035 -1584,-1420l-392 -349c-143,-121 -274,-238 -419,-359l-391 -349c-95,-95 -117,-105 -207,-182l-2209 -1953c-159,-155 -247,-224 -405,-370l-810 -705 -10 5680zm-5258 -1754l1190 1101c148,143 239,204 404,372 393,402 474,288 1221,288 516,0 1033,0 1549,0l6 -5560c-158,84 -1903,1665 -2197,1893l-2173 1906zm-2024 1761l2612 0 -1266 -1172c-263,177 -436,386 -679,573 -84,64 -80,68 -167,150 -66,62 -111,85 -177,141 -90,78 -285,247 -323,308zm-761 -553l766 -639c78,-66 102,-105 183,-168l1319 -1150c129,-104 261,-215 384,-324 147,-131 224,-194 371,-332l3774 -3282c427,-403 363,-89 363,-1057l0 -8515c-360,238 -2044,1841 -2424,2182l-4260 3855c-134,109 -238,224 -371,335 -162,134 -105,312 -105,591l0 8504z"/>
 </g>
</svg>
